<svg width="540" height="375" viewBox="0 0 540 375" fill="none" xmlns="http://www.w3.org/2000/svg">
<path fill-rule="evenodd" clip-rule="evenodd" d="M80 266.963H183V246.963H80V266.963ZM181.662 265.673H81.3377V248.253H181.662V265.673Z" fill="#3F3D56"/>
<path d="M171.5 263.963C175.09 263.963 178 261.053 178 257.463C178 253.873 175.09 250.963 171.5 250.963C167.91 250.963 165 253.873 165 257.463C165 261.053 167.91 263.963 171.5 263.963Z" fill="#222F65"/>
<path d="M151.5 263.963C155.09 263.963 158 261.053 158 257.463C158 253.873 155.09 250.963 151.5 250.963C147.91 250.963 145 253.873 145 257.463C145 261.053 147.91 263.963 151.5 263.963Z" fill="#222F65"/>
<path d="M133.5 263.963C137.09 263.963 140 261.053 140 257.463C140 253.873 137.09 250.963 133.5 250.963C129.91 250.963 127 253.873 127 257.463C127 261.053 129.91 263.963 133.5 263.963Z" fill="#222F65"/>
<path d="M114.5 263.963C118.09 263.963 121 261.053 121 257.463C121 253.873 118.09 250.963 114.5 250.963C110.91 250.963 108 253.873 108 257.463C108 261.053 110.91 263.963 114.5 263.963Z" fill="#222F65"/>
<path d="M95.5 263.963C99.0899 263.963 102 261.053 102 257.463C102 253.873 99.0899 250.963 95.5 250.963C91.9101 250.963 89 253.873 89 257.463C89 261.053 91.9101 263.963 95.5 263.963Z" fill="#222F65"/>
<rect x="362" y="282.963" width="84" height="17" fill="#222F65"/>
<rect x="340" y="196.963" width="123" height="16" fill="#F0F0F0"/>
<rect y="373.963" width="524" height="1" fill="#3F3D56"/>
<path fill-rule="evenodd" clip-rule="evenodd" d="M331.035 374.963H483.965C493.921 374.952 501.989 366.887 502 356.936V72.9895C501.989 63.0384 493.921 54.9743 483.965 54.963H331.035C321.079 54.9743 313.011 63.0384 313 72.9895V356.936C313.011 366.887 321.079 374.952 331.035 374.963ZM314.345 72.9895C314.356 63.7806 321.822 56.318 331.035 56.3075H483.965C493.178 56.318 500.644 63.7806 500.655 72.9895V356.936C500.644 366.145 493.178 373.608 483.965 373.618H331.035C321.822 373.608 314.356 366.145 314.345 356.936V72.9895Z" fill="#3F3D56"/>
<path fill-rule="evenodd" clip-rule="evenodd" d="M386 64.963C386 67.1721 387.791 68.963 390 68.963C392.208 68.9605 393.998 67.1711 394 64.963C394 62.7538 392.209 60.963 390 60.963C387.791 60.963 386 62.7538 386 64.963ZM387.333 64.963C387.333 63.4902 388.527 62.2963 390 62.2963C391.472 62.2979 392.665 63.4908 392.667 64.963C392.667 66.4357 391.473 67.6296 390 67.6296C388.527 67.6296 387.333 66.4357 387.333 64.963Z" fill="#3F3D56"/>
<rect x="400" y="63.963" width="30" height="1" fill="#3F3D56"/>
<path d="M491 73.963V127.963C461.177 127.962 437.001 103.786 437 73.963H491Z" fill="#222F65"/>
<path fill-rule="evenodd" clip-rule="evenodd" d="M325 356.963H491V73.963H325V356.963ZM489.656 355.619H326.344V75.3074H489.656V355.619Z" fill="#3F3D56"/>
<path opacity="0.1" d="M451.5 124.963C461.717 124.963 470 116.68 470 106.463C470 96.2457 461.717 87.963 451.5 87.963C441.283 87.963 433 96.2457 433 106.463C433 116.68 441.283 124.963 451.5 124.963Z" fill="black"/>
<path d="M448.5 126.963C458.717 126.963 467 118.68 467 108.463C467 98.2457 458.717 89.963 448.5 89.963C438.283 89.963 430 98.2457 430 108.463C430 118.68 438.283 126.963 448.5 126.963Z" fill="#222F65"/>
<rect x="332" y="84.963" width="26" height="9" fill="#3F3D56"/>
<rect x="346" y="174.963" width="26" height="9" fill="#3F3D56"/>
<path fill-rule="evenodd" clip-rule="evenodd" d="M347 209.963H471V192.963H347V209.963ZM469.652 208.655H348.348V194.271H469.652V208.655Z" fill="#3F3D56"/>
<rect x="340" y="247.963" width="123" height="16" fill="#F0F0F0"/>
<rect x="346" y="224.963" width="26" height="9" fill="#3F3D56"/>
<path fill-rule="evenodd" clip-rule="evenodd" d="M347 260.963H471V243.963H347V260.963ZM469.652 259.655H348.348V245.271H469.652V259.655Z" fill="#3F3D56"/>
<path fill-rule="evenodd" clip-rule="evenodd" d="M366 295.963H451V277.963H366V295.963ZM449.651 294.677H367.349V279.249H449.651V294.677Z" fill="#3F3D56"/>
<path d="M466 203.463C466 206.204 464.28 208.651 461.7 209.579C459.121 210.507 456.237 209.716 454.491 207.603L454.484 207.597C452.783 205.533 452.52 202.639 453.82 200.302C455.12 197.965 457.719 196.664 460.368 197.022C463.018 197.38 465.178 199.324 465.812 201.922C465.811 201.924 465.812 201.926 465.813 201.927C465.815 201.928 465.816 201.929 465.818 201.929C465.938 202.431 465.999 202.946 466 203.463Z" fill="#222F65"/>
<path opacity="0.1" d="M466 203.088C466 205.988 464.235 208.575 461.589 209.557C458.943 210.538 455.985 209.702 454.193 207.467L454.187 207.46C454.064 206.929 454.001 206.384 454 205.838C454 202.938 455.765 200.35 458.411 199.369C461.057 198.388 464.015 199.224 465.807 201.459C465.807 201.461 465.807 201.462 465.809 201.464C465.81 201.465 465.812 201.466 465.813 201.466C465.936 201.997 465.999 202.542 466 203.088Z" fill="black"/>
<path d="M462.5 212.963C466.09 212.963 469 210.053 469 206.463C469 202.873 466.09 199.963 462.5 199.963C458.91 199.963 456 202.873 456 206.463C456 210.053 458.91 212.963 462.5 212.963Z" fill="#222F65"/>
<path d="M466 253.463C466 256.204 464.28 258.651 461.7 259.579C459.121 260.507 456.237 259.716 454.491 257.603L454.484 257.597C452.783 255.533 452.52 252.639 453.82 250.302C455.12 247.965 457.719 246.664 460.368 247.022C463.018 247.38 465.178 249.324 465.812 251.922C465.811 251.924 465.812 251.926 465.813 251.927C465.815 251.928 465.816 251.929 465.818 251.929C465.938 252.431 465.999 252.946 466 253.463Z" fill="#222F65"/>
<path opacity="0.1" d="M466 254.088C466 256.988 464.235 259.575 461.589 260.557C458.943 261.538 455.985 260.702 454.193 258.467L454.187 258.46C454.064 257.929 454.001 257.384 454 256.838C454 253.938 455.765 251.35 458.411 250.369C461.057 249.388 464.015 250.224 465.807 252.459C465.807 252.461 465.807 252.462 465.809 252.464C465.81 252.465 465.812 252.466 465.813 252.466C465.936 252.997 465.999 253.542 466 254.088Z" fill="black"/>
<path d="M462.5 263.963C466.09 263.963 469 261.053 469 257.463C469 253.873 466.09 250.963 462.5 250.963C458.91 250.963 456 253.873 456 257.463C456 261.053 458.91 263.963 462.5 263.963Z" fill="#222F65"/>
<path fill-rule="evenodd" clip-rule="evenodd" d="M443 8.96295C443 13.3812 446.582 16.963 451 16.963C455.416 16.958 458.995 13.3792 459 8.96295C459 4.54467 455.418 0.962952 451 0.962952C446.582 0.962952 443 4.54467 443 8.96295ZM444.333 8.96295C444.333 5.28105 447.318 2.29629 451 2.29629C454.68 2.3005 457.662 5.2828 457.667 8.96295C457.667 12.6448 454.682 15.6296 451 15.6296C447.318 15.6296 444.333 12.6448 444.333 8.96295Z" fill="#3F3D56"/>
<path fill-rule="evenodd" clip-rule="evenodd" d="M257 129.963H274V112.963H257V129.963ZM272.692 128.655H258.308V114.271H272.692V128.655Z" fill="#3F3D56"/>
<path fill-rule="evenodd" clip-rule="evenodd" d="M523 260.963H540V243.963H523V260.963ZM538.692 259.655H524.308V245.271H538.692V259.655Z" fill="#3F3D56"/>
<path d="M195 143.867L197.998 145.493L208.198 151.029L224.665 159.963L234.262 142.034C236.087 138.631 236.494 134.638 235.392 130.933C234.29 127.229 231.77 124.118 228.387 122.286C221.044 118.293 211.981 119.532 205.96 125.35L205.955 125.356C204.511 126.752 203.292 128.367 202.343 130.142L195 143.867Z" fill="#2F2E41"/>
<path d="M240 324.043L238.069 346.923L230.827 347.963L226 321.963L240 324.043Z" fill="#FFB8B8"/>
<path d="M228.352 348.581C228.352 348.581 237.927 343.449 239.943 347.555C239.943 347.555 238.431 359.871 244.479 361.411C250.527 362.95 253.047 373.727 244.479 374.753C235.912 375.78 230.368 372.701 227.344 372.701C224.32 372.701 227.344 361.924 227.344 361.924L228.352 348.581Z" fill="#2F2E41"/>
<path d="M179 324.043L180.931 346.923L188.173 347.963L193 321.963L179 324.043Z" fill="#FFB8B8"/>
<path d="M191.648 348.581C191.648 348.581 182.073 343.449 180.057 347.555C180.057 347.555 181.569 359.871 175.521 361.411C169.473 362.95 166.953 373.727 175.521 374.753C184.088 375.78 189.632 372.701 192.656 372.701C195.68 372.701 192.656 361.924 192.656 361.924L191.648 348.581Z" fill="#2F2E41"/>
<path d="M219.5 147.963C226.956 147.963 233 141.919 233 134.463C233 127.007 226.956 120.963 219.5 120.963C212.044 120.963 206 127.007 206 134.463C206 141.919 212.044 147.963 219.5 147.963Z" fill="#FFB8B8"/>
<path d="M179 159.763L189.495 176.457L201.988 175.445L222.477 176.963C222.477 176.963 224.411 173.047 225.991 169.238C226.855 167.336 227.52 165.347 227.974 163.304C228.474 159.763 221.478 156.222 221.478 156.222C221.478 156.222 221.203 156.171 220.743 156.06C220.134 155.913 219.194 155.67 218.165 155.316C215.841 154.517 213.047 153.161 212.483 151.163C211.483 147.622 218.979 142.563 218.979 142.563L209.984 133.963C209.984 133.963 201.993 145.199 192.288 147.758C191.725 147.909 191.155 148.027 190.579 148.112C190.549 148.117 190.524 148.123 190.494 148.128C179.999 149.645 179 159.763 179 159.763Z" fill="#FFB8B8"/>
<path d="M184.264 155.963L178.477 160.501C178.477 160.501 173.741 182.184 175.319 188.235C176.898 194.286 174.793 199.833 174.793 200.841C174.793 201.85 170.058 239.668 170.058 239.668C170.058 239.668 160.587 259.838 170.584 257.821C180.581 255.804 176.898 235.634 176.898 235.634L189 200.337V170.586L184.264 155.963Z" fill="#FFB8B8"/>
<path d="M224.046 159.963L228.137 162.963L230.183 204.958L245.525 240.955C245.525 240.955 256.776 258.453 249.616 258.953C242.456 259.453 237.854 240.955 237.854 240.955L224.046 206.458L222 172.962L224.046 159.963Z" fill="#FFB8B8"/>
<path d="M198.734 161.963C198.734 161.963 208.821 169.041 224.96 166.513C224.96 166.513 229.499 175.613 226.978 180.668C224.456 185.724 230.004 197.857 231.012 199.373C232.021 200.89 243.621 232.234 247.656 266.105C251.69 299.977 262.786 323.232 253.203 326.265C243.621 329.298 223.951 332.837 221.934 329.804C219.917 326.771 216.891 251.444 216.891 251.444L211.343 280.261C211.343 280.261 218.908 329.298 213.36 330.31C207.812 331.321 173.013 328.287 174.021 322.221C175.03 316.154 185.117 284.305 185.117 284.305C185.117 284.305 184.613 220.606 194.7 208.473C194.7 208.473 198.734 201.901 193.187 193.307C187.639 184.712 188.143 171.063 188.143 171.063C188.143 171.063 192.178 171.063 198.734 161.963Z" fill="#2F2E41"/>
<path d="M190 148.315L198.08 166.963L200 165.956L191.642 147.963L190 148.315Z" fill="#2F2E41"/>
<path d="M218 155.963L224.452 169.963L226 169.827L225.474 167.444L220.636 156.704C220.013 156.557 219.052 156.316 218 155.963Z" fill="#2F2E41"/>
<path d="M197.377 144.986C198.366 148.252 201.167 150.591 204.484 150.923C207.802 151.254 210.989 149.513 212.574 146.504C206.208 137.964 211.668 132.599 222.01 128.541C223.603 125.507 223.251 121.786 221.119 119.123C215.346 118.365 209.548 120.324 205.343 124.452L205.338 124.457L197.991 138.439C196.933 140.447 196.712 142.808 197.377 144.986Z" fill="#2F2E41"/>
<path d="M212.5 138.963C213.328 138.963 214 137.62 214 135.963C214 134.306 213.328 132.963 212.5 132.963C211.672 132.963 211 134.306 211 135.963C211 137.62 211.672 138.963 212.5 138.963Z" fill="#FFB8B8"/>
<path d="M218 131.084L233.212 137.963L236 131.822C235.52 129.577 234.514 127.478 233.065 125.695L222.595 120.963L218 131.084Z" fill="#2F2E41"/>
<path d="M254.5 265.963C258.09 265.963 261 263.053 261 259.463C261 255.873 258.09 252.963 254.5 252.963C250.91 252.963 248 255.873 248 259.463C248 263.053 250.91 265.963 254.5 265.963Z" fill="#222F65"/>
<path d="M38.5 305.963C40.9853 305.963 43 303.948 43 301.463C43 298.978 40.9853 296.963 38.5 296.963C36.0147 296.963 34 298.978 34 301.463C34 303.948 36.0147 305.963 38.5 305.963Z" fill="#FF6584"/>
<rect x="59" y="324.963" width="1" height="50" fill="#3F3D56"/>
<path d="M60 330.963C63.866 330.963 67 327.829 67 323.963C67 320.097 63.866 316.963 60 316.963C56.134 316.963 53 320.097 53 323.963C53 327.829 56.134 330.963 60 330.963Z" fill="#3F3D56"/>
<path d="M59 354.963C59 354.963 58.0233 333.69 38 336.163L59 354.963Z" fill="#3F3D56"/>
</svg>
